<svg id="Layer_1" enable-background="new 0 0 64 64" height="512" viewBox="0 0 64 64" width="512" xmlns="http://www.w3.org/2000/svg"><g><path d="m9 10c.553 0 1-.447 1-1v-1c0-.553-.447-1-1-1s-1 .447-1 1v1c0 .553.447 1 1 1z"/><path d="m6 12h1c.553 0 1-.447 1-1s-.447-1-1-1h-1c-.553 0-1 .447-1 1s.447 1 1 1z"/><path d="m11 12h1c.553 0 1-.447 1-1s-.447-1-1-1h-1c-.553 0-1 .447-1 1s.447 1 1 1z"/><path d="m10 13c0-.553-.447-1-1-1s-1 .447-1 1v1c0 .553.447 1 1 1s1-.447 1-1z"/><path d="m8.707 27.293c-.391-.391-1.023-.391-1.414 0s-.391 1.023 0 1.414l1 1c.195.195.451.293.707.293s.512-.098.707-.293c.391-.391.391-1.023 0-1.414z"/><path d="m9.707 22.293c-.391-.391-1.023-.391-1.414 0l-1 1c-.391.391-.391 1.023 0 1.414.195.195.451.293.707.293s.512-.098.707-.293l1-1c.391-.391.391-1.023 0-1.414z"/><path d="m3 30c.256 0 .512-.098.707-.293l1-1c.391-.391.391-1.023 0-1.414s-1.023-.391-1.414 0l-1 1c-.391.391-.391 1.023 0 1.414.195.195.451.293.707.293z"/><path d="m3.293 24.707c.195.195.451.293.707.293s.512-.098.707-.293c.391-.391.391-1.023 0-1.414l-1-1c-.391-.391-1.023-.391-1.414 0s-.391 1.023 0 1.414z"/><path d="m14 20c1.335 0 2.591.521 3.536 1.464.943.945 1.464 2.201 1.464 3.536 0 .553.447 1 1 1s1-.447 1-1c0-1.335.521-2.591 1.464-3.536.945-.943 2.201-1.464 3.536-1.464.553 0 1-.447 1-1s-.447-1-1-1c-2.757 0-5-2.243-5-5 0-.553-.447-1-1-1s-1 .447-1 1c0 1.335-.521 2.591-1.464 3.536-.945.943-2.201 1.464-3.536 1.464-.553 0-1 .447-1 1s.447 1 1 1zm4.95-2.05c.409-.409.762-.86 1.053-1.343.59.978 1.412 1.8 2.391 2.39-.483.292-.935.644-1.344 1.053-.408.408-.759.857-1.05 1.339-.291-.481-.643-.931-1.05-1.339-.408-.408-.857-.759-1.339-1.05.482-.291.931-.643 1.339-1.05z"/><path d="m56.88 41.773c.158.389.531.623.926.623.126 0 .254-.023.377-.074.512-.208.758-.792.549-1.303-.52-1.276-1.194-2.49-2.006-3.607-.324-.446-.948-.548-1.397-.222-.446.325-.546.95-.222 1.397.717.988 1.313 2.059 1.773 3.186z"/><path d="m59.796 44.846c-.085-.545-.587-.916-1.143-.834-.546.085-.919.597-.834 1.143.12.767.181 1.55.181 2.326 0 2.005-.571 3.959-1.653 5.653-.942 1.486-2.259 2.72-3.811 3.567-.859.475-1.787.825-2.755 1.043-.539.121-.878.655-.757 1.194.104.466.518.781.975.781.072 0 .146-.008.22-.024 1.153-.259 2.258-.677 3.28-1.24 1.845-1.009 3.414-2.479 4.535-4.248 1.286-2.013 1.966-4.339 1.966-6.726 0-.878-.068-1.765-.204-2.635z"/><path d="m54.983 30.171-9.959-6.974c.026-.025.058-.044.083-.07.577-.561.893-1.315.893-2.127 0-.772-.301-1.47-.783-2.003.5-.545.783-1.242.783-1.996 0-1.081-.58-2.023-1.441-2.551 2.997-4.247 7.942-7.581 7.995-7.617.249-.166.411-.436.44-.733.029-.299-.076-.594-.288-.806-1.941-1.942-4.551-2.411-6.465-2.451.349-.586.575-.913.579-.919.186-.266.23-.606.12-.911-.11-.306-.361-.539-.675-.625-3.468-.957-4.975.068-6.184.893-.698.476-1.204.821-2.081.821s-1.383-.345-2.082-.821c-1.209-.824-2.714-1.851-6.184-.893-.313.086-.564.319-.675.625-.11.305-.065.646.12.911.004.005.229.332.578.918-1.915.041-4.524.51-6.465 2.452-.212.212-.317.507-.288.806.029.298.191.567.44.733.053.036 4.996 3.37 7.994 7.615-.197.122-.383.259-.545.426-.576.56-.893 1.314-.893 2.127 0 .772.301 1.47.783 2.003-.5.545-.783 1.243-.783 1.996 0 .871.379 1.65.974 2.198l-9.957 6.973c-.793.555-1.537 1.175-2.238 1.829h-7.779c-.553 0-1 .447-1 1v5h-5c-.553 0-1 .447-1 1v5h-3c-.553 0-1 .447-1 1v6c0 .553.447 1 1 1h1v4h-1c-.553 0-1 .447-1 1v6c0 .553.447 1 1 1h12 18 12 4.48c2.776 0 5.526-.707 7.949-2.043 2.431-1.329 4.501-3.27 5.983-5.609 1.693-2.65 2.588-5.716 2.588-8.868 0-6.889-3.371-13.361-9.017-17.309zm-21.983-8.171c-.552 0-1-.448-1-1 0-.267.103-.514.307-.713.179-.184.425-.286.69-.286h.003 4c.553 0 1-.447 1-1s-.447-1-1-1h-3.995c-.002 0-.003-.001-.005-.001-.001 0-.002 0-.003 0-.55-.002-.997-.448-.997-.999 0-.267.102-.513.307-.712.181-.186.427-.288.693-.288h10c.552 0 1 .448 1 1 0 .268-.102.514-.307.713-.179.184-.425.286-.69.286-.001 0-.002 0-.003 0-.002 0-.003.001-.005.001h-.995c-.553 0-1 .447-1 1s.447 1 1 1h1 .003c.55.002.997.448.997.999 0 .267-.103.514-.307.713-.179.184-.426.287-.693.287zm-7.349-16.049c1.76-1.121 3.927-1.178 5.204-1.086.664 1.342 1.512 3.287 2.183 5.613.154.531.708.837 1.238.684s.837-.708.684-1.238c-.803-2.777-1.842-5.047-2.573-6.462-.287-.555-.552-1.03-.78-1.422 1.595-.188 2.345.319 3.184.893.804.547 1.715 1.169 3.209 1.169s2.405-.621 3.209-1.169c.839-.572 1.587-1.079 3.184-.893-.229.392-.494.868-.781 1.423-.73 1.414-1.77 3.684-2.572 6.461-.153.53.153 1.085.684 1.238.093.026.186.039.277.039.435 0 .834-.284.961-.723.672-2.327 1.52-4.272 2.183-5.613 1.278-.093 3.445-.034 5.204 1.086-1.837 1.37-5.533 4.399-7.884 8.05h-3.465v-7c0-.553-.447-1-1-1s-1 .447-1 1v7h-3.464c-2.351-3.651-6.048-6.68-7.885-8.05zm-13.651 28.049h16v4h-15-1zm31 6v4h-11v-4zm-13 0v4h-1-15v-4h15zm-17 10h-1v-4h1 15v4zm1 2h15 1v4h-16zm18 6h10v4h-10zm11-2h-11v-4h12v4zm-13-6v-4h12v4zm-24-10h6v4h-6zm-4 6h3 5v4h-7-1zm2 6h7 1v4h-8zm-2 6h1 9v4h-10zm12 0h16v4h-16zm45.726-2.726c-1.304 2.057-3.121 3.761-5.258 4.93-2.132 1.175-4.548 1.796-6.988 1.796h-3.48v-4h1c.553 0 1-.447 1-1v-6c0-.553-.447-1-1-1h-1v-4c.553 0 1-.447 1-1v-6c0-.553-.447-1-1-1h-13-1v-5c0-.553-.447-1-1-1h-7.087c.085-.062.164-.13.25-.19l11.152-7.81h9.37l11.152 7.81c5.111 3.575 8.163 9.433 8.163 15.67 0 2.77-.786 5.463-2.274 7.794z"/></g></svg>